Results
version=1
nRows=22
nColumns=24
inDegrees=yes
endheader
time	pelvis_tilt	pelvis_list	pelvis_rotation	pelvis_tx	pelvis_ty	pelvis_tz	hip_flexion_r	hip_adduction_r	hip_rotation_r	knee_angle_r	ankle_angle_r	subtalar_angle_r	mtp_angle_r	hip_flexion_l	hip_adduction_l	hip_rotation_l	knee_angle_l	ankle_angle_l	subtalar_angle_l	mtp_angle_l	lumbar_extension	lumbar_bending	lumbar_rotation
      1.20450000	     -5.29549484	     -5.14612066	     -7.77035276	      0.08031610	      0.95487353	      0.35620876	    -15.22500204	      7.23493563	      1.03180000	     -7.95557818	     11.12902933	      2.03716165	      5.36414437	     31.59759602	     -6.47108451	     -9.98165308	      0.94340049	      4.60386021	      1.17671973	      1.08547893	      1.29352124	      9.17782913	     13.00011693
      1.20866667	     -5.35453166	     -4.98827497	     -7.83348447	      0.08652764	      0.95414077	      0.35597943	    -15.36710991	      6.98778638	      0.98453202	     -8.21903845	     10.97461729	      2.04284605	      5.80313647	     31.64092542	     -6.32479609	     -9.70431361	      0.55959473	      4.31657161	      0.47380693	      1.19126273	      1.42519074	      8.99231697	     13.05820630
      1.21283333	     -5.41427178	     -4.79564446	     -7.86821113	      0.09283018	      0.95344272	      0.35570953	    -15.50166623	      6.70525021	      0.84397303	     -8.46490868	     10.61514767	      2.11958250	      9.54332417	     31.69062050	     -6.13163325	     -9.46769973	      0.14070668	      3.92894383	     -0.13038626	      2.24193122	      1.57554519	      8.76369667	     13.04764073
      1.21700000	     -5.54431685	     -4.62551653	     -7.92450083	      0.09909422	      0.95271491	      0.35549097	    -15.55230501	      6.46593954	      0.86640455	     -8.75047031	     10.40835066	      1.93925770	      9.59521219	     31.82484355	     -5.98011233	     -9.18593660	     -0.32962332	      3.48485633	     -0.79302041	      2.24311730	      1.80014365	      8.56501424	     13.19251376
      1.22116667	     -5.63774339	     -4.43284912	     -7.96394381	      0.10542225	      0.95207223	      0.35522183	    -15.62604407	      6.19485560	      0.82232815	     -9.05331025	     10.13328550	      1.86519593	      9.68571222	     31.90910540	     -5.78834281	     -8.87295220	     -0.80100840	      3.00765175	     -1.54754783	      2.26135635	      1.99449794	      8.33159544	     13.25434564
      1.22533333	     -5.74833790	     -4.21827338	     -7.99122098	      0.11178602	      0.95144884	      0.35491426	    -15.66685174	      5.90388723	      0.76597938	     -9.37172355	      9.82915036	      1.79791842	      9.79721416	     32.02113825	     -5.56798262	     -8.57039638	     -1.30479214	      2.48094623	     -2.29063098	      2.28901047	      2.20458828	      8.08768286	     13.31145512
      1.22950000	     -5.85516087	     -4.01014327	     -8.01156713	      0.11816507	      0.95087845	      0.35459660	    -15.68657997	      5.62069000	      0.69722034	     -9.73752278	      9.51448962	      1.73643591	      9.95243926	     32.12864269	     -5.34734327	     -8.23735879	     -1.82218068	      1.91422066	     -3.10182148	      2.33185857	      2.42999045	      7.83226927	     13.36472788
      1.23366667	     -5.96382281	     -3.78420179	     -8.02625852	      0.12457120	      0.95035294	      0.35425273	    -15.67799829	      5.31759775	      0.60698485	    -10.14485759	      9.16906701	      1.66282788	     10.17174195	     32.23939407	     -5.10228748	     -7.91068437	     -2.35132498	      1.31361514	     -3.92818459	      2.39609434	      2.64912663	      7.56440074	     13.40956626
      1.23783333	     -6.09607687	     -3.54458985	     -8.02347259	      0.13102249	      0.94984753	      0.35387527	    -15.64313833	      5.00902686	      0.54021562	    -10.54005217	      8.76820488	      1.57974110	     10.39286669	     32.38559920	     -4.83517719	     -7.59432426	     -2.90683300	      0.66770791	     -4.71104801	      2.45783279	      2.91147142	      7.28567794	     13.45877211
      1.24200000	     -6.20405974	     -3.30142519	     -8.01951920	      0.13745946	      0.94942518	      0.35346295	    -15.57873630	      4.68647050	      0.41484041	    -11.03908932	      8.37770700	      1.48541897	     10.74749961	     32.50107238	     -4.55600963	     -7.26651924	     -3.45791798	      0.01274751	     -5.54668902	      2.55896635	      3.12560004	      7.00168743	     13.49123836
      1.24616667	     -6.35578069	     -3.04729832	     -7.99162456	      0.14397036	      0.94899864	      0.35304864	    -15.49198024	      4.37357508	      0.35811896	    -11.47447444	      7.88934390	      1.38371878	     11.02481004	     32.68000212	     -4.26085414	     -6.97648014	     -4.04807872	     -0.66279818	     -6.27494744	      2.63079279	      3.43190617	      6.70049588	     13.53363034
      1.25033333	     -6.46350399	     -2.76815136	     -7.93935200	      0.15047553	      0.94865243	      0.35252439	    -15.36936280	      4.00853500	      0.09244826	    -12.05068086	      7.35635363	      1.39526515	     15.93824426	     32.81141721	     -3.91719408	     -6.67446591	     -4.62686585	     -1.36291959	     -7.00228090	      3.96246981	      3.66234348	      6.37388477	     13.54124153
      1.25450000	     -6.60365354	     -2.50395542	     -7.91359832	      0.15699801	      0.94837140	      0.35210590	    -15.24084621	      3.68617374	      0.09589117	    -12.57261394	      6.80198153	      1.12314450	     15.99086309	     32.98001097	     -3.61020089	     -6.42488565	     -5.23772375	     -2.00832822	     -7.70583831	      3.94919746	      3.95084504	      6.05326200	     13.58719579
      1.25866667	     -6.73959679	     -2.22981526	     -7.86776591	      0.16349881	      0.94813243	      0.35159406	    -15.05463733	      3.34412602	     -0.00301261	    -13.20422985	      6.25365916	      0.96477860	     16.11701497	     33.14189966	     -3.27398983	     -6.12662583	     -5.83843516	     -2.65435292	     -8.42723566	      3.94453364	      4.20642632	      5.74352639	     13.61349661
      1.26283333	     -6.87489576	     -1.94853597	     -7.79805066	      0.17004236	      0.94794277	      0.35106381	    -14.85597914	      3.00111448	     -0.10822612	    -13.84939877	      5.63755360	      0.83998068	     16.28007453	     33.31538561	     -2.92143804	     -5.87288024	     -6.46827797	     -3.26682382	     -9.05321324	      3.94513832	      4.49472083	      5.40129725	     13.63352519
      1.26700000	     -7.00063794	     -1.65098484	     -7.72715619	      0.17657130	      0.94782122	      0.35048180	    -14.61295657	      2.63072406	     -0.24454624	    -14.58591159	      5.01485435	      0.73207161	     16.56275210	     33.46617647	     -2.54488556	     -5.59377660	     -7.07763933	     -3.84312069	     -9.68924703	      3.95391533	      4.74369891	      5.06311313	     13.64995676
      1.27116667	     -7.12951637	     -1.35827340	     -7.63150051	      0.18314181	      0.94774857	      0.34990828	    -14.37144450	      2.27964117	     -0.34598525	    -15.29915850	      4.28549992	      0.60267705	     16.79888124	     33.64601701	     -2.17013128	     -5.39822673	     -7.74705387	     -4.36928351	    -10.18803877	      3.95917810	      5.03381159	      4.70213312	     13.66521336
      1.27533333	     -7.24204216	     -1.04187088	     -7.54722880	      0.18966453	      0.94774170	      0.34925019	    -14.05991609	      1.87957688	     -0.50762681	    -16.17079664	      3.60490836	      0.52464627	     17.33978497	     33.77056537	     -1.75971373	     -5.11860142	     -8.34163258	     -4.85342980	    -10.79921788	      3.97562256	      5.26711726	      4.34717227	     13.68135100
      1.27950000	     -7.25679515	     -0.67952855	     -7.44739710	      0.19628725	      0.94791790	      0.34859808	    -13.85485477	      1.41135742	     -0.72385728	    -16.99913932	      2.70271430	      0.58735298	     21.43664752	     33.79435766	     -1.29811605	     -4.99757153	     -8.95114478	     -5.31087270	    -11.26296189	      4.08754106	      5.41622421	      3.88866448	     13.67804043
      1.28366667	     -7.43136461	     -0.42595469	     -7.31969374	      0.20276172	      0.94791749	      0.34795129	    -13.44527819	      1.11526042	     -0.78659559	    -17.91614500	      1.88308639	      0.26900898	     21.52272485	     34.04263745	     -0.95324439	     -4.81865747	     -9.68067455	     -5.61049221	    -11.51638993	      4.08147284	      5.73815924	      3.59238779	     13.68586611
      1.28783333	     -7.53833853	     -0.12749395	     -7.20436298	      0.20925637	      0.94806074	      0.34725967	    -13.05888972	      0.74326012	     -0.89174894	    -18.90039488	      1.00709728	      0.12564173	     21.67384016	     34.17798606	     -0.55520346	     -4.65103103	    -10.33381033	     -5.90461273	    -11.86189404	      4.07020229	      5.96926787	      3.24400548	     13.69470675
      1.29200000	     -7.62601622	      0.17740487	     -7.08105402	      0.21573824	      0.94826548	      0.34655582	    -12.65084867	      0.35694199	     -1.02111225	    -19.95041084	      0.07395689	      0.03577403	     21.85190139	     34.28432927	     -0.14821345	     -4.52159580	    -10.97569542	     -6.14724057	    -12.14563409	      4.05579417	      6.18807634	      2.87466359	     13.69776557
